# xmcd
#
# Track frame offsets: 
#        150
#        35981
#        74152
#        131012
#        176784
#        202044
#        217101
#        258154
#        304910
#        331258
#
# Disc length: 4661 seconds
#
# Revision: 0
# Processed by: cddbd v1.5.2PL0 Copyright (c) Steve Scherf et al.
# Submitted via: ExactAudioCopy v0.95b4
#
DISCID=a812330a
DTITLE=Leslie West Band - Live at Brierley Hill 1988
DYEAR=2007
DGENRE=Blues
TTITLE0=Blood of the Sun
TTITLE1=Theme For An Imaginary Western
TTITLE2=Third Degree - Dreams of  Milk And Honey
TTITLE3=Voodoo Chile
TTITLE4=Never In My Life
TTITLE5=Cell 65
TTITLE6=Long Red - Baby I'm Down - Silver Paper
TTITLE7=Nantucket Sleighride
TTITLE8=Mississippi Queen
TTITLE9=Whole Lotta Love
EXTD=
EXTT0=
EXTT1=
EXTT2=
EXTT3=
EXTT4=
EXTT5=
EXTT6=
EXTT7=
EXTT8=
EXTT9=
PLAYORDER=
